# xmcd
#
# Track frame offsets: 
#        150
#        12347
#        22160
#        35205
#        50432
#        65155
#        78300
#        91652
#        106662
#        123142
#
# Disc length: 1904 seconds
#
# Revision: 4
# Processed by: cddbd v1.5.2PL0 Copyright (c) Steve Scherf et al.
# Submitted via: ExactAudioCopyFreeDBPlugin 1.0
#
DISCID=7a076e0a
DTITLE=Tony Bennett - My Best to You
DYEAR=1900
DGENRE=Jazz
TTITLE0=The Second Time Around
TTITLE1=I Wanna Be Around
TTITLE2=I Left My Heart in San Francisco
TTITLE3=For Once in My Life
TTITLE4=(Where Do I Begin) Love Story
TTITLE5=A Taste of Honey
TTITLE6=Who Can I Turn to (When Nobody Needs Me)
TTITLE7=It Had to be You
TTITLE8=The Shadow of Your Smile
TTITLE9=What a Wonderful World
EXTD=
EXTT0=
EXTT1=
EXTT2=
EXTT3=
EXTT4=
EXTT5=
EXTT6=
EXTT7=
EXTT8=
EXTT9=
PLAYORDER=
